<svg width="59" height="45" viewBox="0 0 59 45" fill="none" xmlns="http://www.w3.org/2000/svg">
<path d="M13.6641 16.1493C11.8578 16.1493 10.3645 15.7298 9.18406 14.8907C8.01784 14.0373 7.38495 12.7929 7.28539 11.1573H12.3201C12.3912 12.0249 12.7752 12.4587 13.4721 12.4587C13.7281 12.4587 13.9414 12.4018 14.1121 12.288C14.297 12.16 14.3894 11.968 14.3894 11.712C14.3894 11.3564 14.1974 11.072 13.8134 10.8587C13.4294 10.6311 12.8321 10.3751 12.0214 10.0907C11.0543 9.74933 10.2507 9.41511 9.61073 9.088C8.98495 8.76089 8.44451 8.28444 7.98939 7.65867C7.53428 7.03289 7.31384 6.22933 7.32806 5.248C7.32806 4.26667 7.57695 3.43467 8.07473 2.752C8.58673 2.05511 9.27651 1.52889 10.1441 1.17333C11.0258 0.817777 12.0143 0.639999 13.1094 0.639999C14.9583 0.639999 16.4232 1.06667 17.5041 1.92C18.5992 2.77333 19.1752 3.97511 19.2321 5.52533H14.1334C14.1192 5.09867 14.0125 4.79289 13.8134 4.608C13.6143 4.42311 13.3725 4.33067 13.0881 4.33067C12.889 4.33067 12.7254 4.40178 12.5974 4.544C12.4694 4.672 12.4054 4.85689 12.4054 5.09867C12.4054 5.44 12.5903 5.72444 12.9601 5.952C13.3441 6.16533 13.9485 6.42844 14.7734 6.74133C15.7263 7.09689 16.5085 7.43822 17.1201 7.76533C17.7458 8.09244 18.2863 8.54756 18.7414 9.13067C19.1965 9.71378 19.4241 10.4462 19.4241 11.328C19.4241 12.2524 19.1965 13.0844 18.7414 13.824C18.2863 14.5493 17.625 15.1182 16.7574 15.5307C15.8898 15.9431 14.8587 16.1493 13.6641 16.1493ZM25.7174 0.895999V9.408C25.7174 10.1049 25.8667 10.6596 26.1654 11.072C26.4783 11.4702 26.9761 11.6693 27.6587 11.6693C28.3414 11.6693 28.8463 11.4702 29.1734 11.072C29.5005 10.6596 29.6641 10.1049 29.6641 9.408V0.895999H34.3787V9.408C34.3787 10.8444 34.0801 12.0747 33.4827 13.0987C32.8854 14.1084 32.0676 14.8693 31.0294 15.3813C29.9912 15.8933 28.8321 16.1493 27.5521 16.1493C26.2721 16.1493 25.1343 15.8933 24.1387 15.3813C23.1574 14.8693 22.3894 14.1084 21.8347 13.0987C21.2801 12.0889 21.0027 10.8587 21.0027 9.408V0.895999H25.7174ZM46.1067 13.7173H41.0721L40.3254 16H35.3547L40.8801 0.895999H46.3414L51.8454 16H46.8534L46.1067 13.7173ZM44.9547 10.1547L43.5894 5.952L42.2241 10.1547H44.9547ZM4.84489 40.416H9.41023V44H0.108894V28.896H4.84489V40.416ZM18.2606 44.1493C16.8383 44.1493 15.5299 43.8151 14.3352 43.1467C13.1548 42.4782 12.2161 41.5538 11.5192 40.3733C10.8223 39.1929 10.4739 37.8631 10.4739 36.384C10.4739 34.9049 10.8223 33.5751 11.5192 32.3947C12.2161 31.2142 13.1548 30.2969 14.3352 29.6427C15.5299 28.9742 16.8383 28.64 18.2606 28.64C19.6828 28.64 20.9841 28.9742 22.1646 29.6427C23.345 30.2969 24.2766 31.2142 24.9592 32.3947C25.6561 33.5751 26.0046 34.9049 26.0046 36.384C26.0046 37.8631 25.6561 39.1929 24.9592 40.3733C24.2766 41.5538 23.3379 42.4782 22.1432 43.1467C20.9628 43.8151 19.6686 44.1493 18.2606 44.1493ZM18.2606 39.7333C19.1992 39.7333 19.9246 39.4347 20.4366 38.8373C20.9486 38.2258 21.2046 37.408 21.2046 36.384C21.2046 35.3458 20.9486 34.528 20.4366 33.9307C19.9246 33.3191 19.1992 33.0133 18.2606 33.0133C17.3077 33.0133 16.5752 33.3191 16.0632 33.9307C15.5512 34.528 15.2952 35.3458 15.2952 36.384C15.2952 37.408 15.5512 38.2258 16.0632 38.8373C16.5752 39.4347 17.3077 39.7333 18.2606 39.7333ZM36.9717 34.0587C36.7868 33.76 36.5237 33.5324 36.1824 33.376C35.8411 33.2053 35.4286 33.12 34.9451 33.12C34.0348 33.12 33.3308 33.4187 32.8331 34.016C32.3353 34.5991 32.0864 35.4027 32.0864 36.4267C32.0864 37.6071 32.3637 38.4889 32.9184 39.072C33.4731 39.6551 34.3264 39.9467 35.4784 39.9467C36.5735 39.9467 37.4553 39.5058 38.1237 38.624H34.3477V35.2747H42.0491V40.0107C41.3948 41.1342 40.4917 42.1013 39.3397 42.912C38.1877 43.7084 36.73 44.1067 34.9664 44.1067C33.402 44.1067 32.0366 43.7867 30.8704 43.1467C29.7184 42.4924 28.8295 41.5822 28.2037 40.416C27.5922 39.2498 27.2864 37.92 27.2864 36.4267C27.2864 34.9333 27.5922 33.6036 28.2037 32.4373C28.8295 31.2711 29.7184 30.368 30.8704 29.728C32.0224 29.0738 33.3735 28.7467 34.9237 28.7467C36.9006 28.7467 38.5077 29.2231 39.7451 30.176C40.9966 31.1289 41.7362 32.4231 41.9637 34.0587H36.9717ZM51.1147 44.1493C49.6925 44.1493 48.3841 43.8151 47.1894 43.1467C46.009 42.4782 45.0703 41.5538 44.3734 40.3733C43.6765 39.1929 43.3281 37.8631 43.3281 36.384C43.3281 34.9049 43.6765 33.5751 44.3734 32.3947C45.0703 31.2142 46.009 30.2969 47.1894 29.6427C48.3841 28.9742 49.6925 28.64 51.1147 28.64C52.537 28.64 53.8383 28.9742 55.0187 29.6427C56.1992 30.2969 57.1307 31.2142 57.8134 32.3947C58.5103 33.5751 58.8587 34.9049 58.8587 36.384C58.8587 37.8631 58.5103 39.1929 57.8134 40.3733C57.1307 41.5538 56.1921 42.4782 54.9974 43.1467C53.817 43.8151 52.5227 44.1493 51.1147 44.1493ZM51.1147 39.7333C52.0534 39.7333 52.7787 39.4347 53.2907 38.8373C53.8027 38.2258 54.0587 37.408 54.0587 36.384C54.0587 35.3458 53.8027 34.528 53.2907 33.9307C52.7787 33.3191 52.0534 33.0133 51.1147 33.0133C50.1618 33.0133 49.4294 33.3191 48.9174 33.9307C48.4054 34.528 48.1494 35.3458 48.1494 36.384C48.1494 37.408 48.4054 38.2258 48.9174 38.8373C49.4294 39.4347 50.1618 39.7333 51.1147 39.7333Z" fill="white"/>
</svg>
